<svg xmlns="http://www.w3.org/2000/svg" xmlns:xlink="http://www.w3.org/1999/xlink" width="500" zoomAndPan="magnify" viewBox="0 0 375 374.999991" height="500" preserveAspectRatio="xMidYMid meet" version="1.0"><defs><g/></defs><g fill="#000000" fill-opacity="1"><g transform="translate(43.968752, 201.726416)"><g><path d="M -1.21875 -22.78125 C -2.8125 -24.300781 -3.609375 -25.941406 -3.609375 -27.703125 C -3.609375 -29.066406 -3.171875 -30.253906 -2.296875 -31.265625 C -0.640625 -33.210938 1.679688 -34.1875 4.671875 -34.1875 L 27.640625 -34.1875 C 29.078125 -34.21875 30.332031 -34.335938 31.40625 -34.546875 C 32.476562 -34.765625 33.160156 -34.9375 33.453125 -35.0625 L 33.453125 -26.578125 L 32.96875 -26.578125 L 32.96875 -27.15625 C 32.96875 -28.625 32.523438 -29.8125 31.640625 -30.71875 C 30.765625 -31.632812 29.582031 -32.109375 28.09375 -32.140625 L 21.5 -32.140625 L 21.5 -3.515625 C 21.5625 -2.335938 22.097656 -1.457031 23.109375 -0.875 C 23.566406 -0.613281 24.070312 -0.484375 24.625 -0.484375 L 25.265625 -0.484375 L 25.265625 0 L 10.4375 0 L 10.4375 -0.484375 L 11.0625 -0.484375 C 11.90625 -0.484375 12.628906 -0.773438 13.234375 -1.359375 C 13.835938 -1.953125 14.15625 -2.65625 14.1875 -3.46875 L 14.1875 -32.140625 L 4.671875 -32.140625 C 3.347656 -32.140625 2.179688 -31.894531 1.171875 -31.40625 C -0.878906 -30.425781 -1.90625 -28.898438 -1.90625 -26.828125 C -1.90625 -25.585938 -1.515625 -24.316406 -0.734375 -23.015625 Z M -1.21875 -22.78125 "/></g></g></g><g fill="#000000" fill-opacity="1"><g transform="translate(78.004394, 201.726416)"><g><path d="M 38.53125 -33.640625 L 37.703125 -33.640625 C 37.015625 -33.640625 36.414062 -33.421875 35.90625 -32.984375 C 35.40625 -32.546875 35.15625 -32.003906 35.15625 -31.359375 L 35.15625 -12.34375 C 35.15625 -8.34375 33.90625 -5.171875 31.40625 -2.828125 C 28.90625 -0.484375 25.472656 0.6875 21.109375 0.6875 C 15.972656 0.6875 12.039062 -0.457031 9.3125 -2.75 C 6.582031 -5.039062 5.21875 -8.21875 5.21875 -12.28125 L 5.21875 -31.203125 C 5.21875 -31.921875 4.960938 -32.503906 4.453125 -32.953125 C 3.953125 -33.410156 3.347656 -33.640625 2.640625 -33.640625 L 1.859375 -33.640625 L 1.859375 -34.140625 L 15.890625 -34.140625 L 15.890625 -33.640625 L 15.125 -33.640625 C 14.40625 -33.640625 13.800781 -33.421875 13.3125 -32.984375 C 12.820312 -32.546875 12.5625 -31.988281 12.53125 -31.3125 L 12.53125 -12.671875 C 12.53125 -9.234375 13.375 -6.503906 15.0625 -4.484375 C 16.757812 -2.472656 19.085938 -1.46875 22.046875 -1.46875 C 25.003906 -1.46875 27.34375 -2.414062 29.0625 -4.3125 C 30.789062 -6.21875 31.671875 -8.796875 31.703125 -12.046875 L 31.703125 -31.3125 C 31.703125 -31.988281 31.445312 -32.546875 30.9375 -32.984375 C 30.4375 -33.421875 29.828125 -33.640625 29.109375 -33.640625 L 28.328125 -33.640625 L 28.328125 -34.140625 L 38.53125 -34.140625 Z M 38.53125 -33.640625 "/></g></g></g><g fill="#000000" fill-opacity="1"><g transform="translate(118.037724, 201.726416)"><g><path d="M 39.84375 -33.640625 C 39.03125 -33.640625 38.328125 -33.351562 37.734375 -32.78125 C 37.148438 -32.21875 36.84375 -31.53125 36.8125 -30.71875 L 36.8125 -5.5625 C 36.8125 -3.382812 36.957031 -1.546875 37.25 -0.046875 L 37.40625 0.6875 L 36.96875 0.6875 L 12.34375 -22.78125 L 12.34375 -3.40625 C 12.34375 -2.59375 12.632812 -1.898438 13.21875 -1.328125 C 13.800781 -0.765625 14.5 -0.484375 15.3125 -0.484375 L 16.234375 -0.484375 L 16.234375 0 L 1.46875 0 L 1.46875 -0.484375 L 2.34375 -0.484375 C 3.1875 -0.484375 3.898438 -0.765625 4.484375 -1.328125 C 5.066406 -1.898438 5.359375 -2.613281 5.359375 -3.46875 L 5.359375 -28.765625 C 5.359375 -30.910156 5.210938 -32.703125 4.921875 -34.140625 L 4.828125 -34.875 L 5.265625 -34.875 L 29.890625 -11.40625 L 29.890625 -30.671875 C 29.859375 -31.515625 29.550781 -32.21875 28.96875 -32.78125 C 28.382812 -33.351562 27.6875 -33.640625 26.875 -33.640625 L 25.984375 -33.640625 L 25.984375 -34.140625 L 40.765625 -34.140625 L 40.765625 -33.640625 Z M 39.84375 -33.640625 "/></g></g></g><g fill="#000000" fill-opacity="1"><g transform="translate(160.216558, 201.726416)"><g><path d="M 2.875 -35.0625 C 3.363281 -34.863281 4.21875 -34.664062 5.4375 -34.46875 C 6.65625 -34.28125 7.515625 -34.1875 8.015625 -34.1875 C 8.523438 -34.1875 8.78125 -34.1875 8.78125 -34.1875 L 24.328125 -34.1875 C 25.921875 -34.1875 27.140625 -34.273438 27.984375 -34.453125 C 28.835938 -34.628906 29.328125 -34.75 29.453125 -34.8125 L 29.453125 -34.375 L 11.40625 -2.046875 L 21.65625 -2.046875 C 23.726562 -2.046875 25.535156 -2.742188 27.078125 -4.140625 C 28.628906 -5.535156 29.726562 -7.421875 30.375 -9.796875 L 30.875 -9.796875 L 29.109375 0 L 2.1875 0 L 2.1875 -0.4375 L 20.09375 -32.140625 L 8.296875 -32.140625 C 6.796875 -32.109375 5.597656 -31.644531 4.703125 -30.75 C 3.804688 -29.851562 3.359375 -28.65625 3.359375 -27.15625 L 3.359375 -26.578125 L 2.875 -26.578125 Z M 2.875 -35.0625 "/></g></g></g><g fill="#ff3131" fill-opacity="1"><g transform="translate(192.398434, 201.726416)"><g><path d="M 2.6875 -0.484375 C 3.53125 -0.484375 4.25 -0.785156 4.84375 -1.390625 C 5.445312 -1.992188 5.765625 -2.71875 5.796875 -3.5625 L 5.796875 -30.625 C 5.765625 -31.789062 5.226562 -32.671875 4.1875 -33.265625 C 3.738281 -33.515625 3.238281 -33.640625 2.6875 -33.640625 L 2.046875 -33.640625 L 2.046875 -34.140625 L 16.875 -34.140625 L 16.828125 -33.640625 L 16.234375 -33.640625 C 15.066406 -33.640625 14.175781 -33.140625 13.5625 -32.140625 C 13.269531 -31.679688 13.125 -31.175781 13.125 -30.625 L 13.125 -3.5625 C 13.125 -2.71875 13.429688 -1.992188 14.046875 -1.390625 C 14.660156 -0.785156 15.390625 -0.484375 16.234375 -0.484375 L 16.828125 -0.484375 L 16.875 0 L 2.046875 0 L 2.046875 -0.484375 Z M 37.890625 0 L 33.890625 0 C 28.953125 0 25.457031 -1.347656 23.40625 -4.046875 C 17.582031 -11.941406 14.671875 -15.957031 14.671875 -16.09375 L 26.234375 -31.40625 C 26.492188 -31.726562 26.625 -32.019531 26.625 -32.28125 C 26.625 -32.539062 26.578125 -32.769531 26.484375 -32.96875 C 26.222656 -33.457031 25.765625 -33.703125 25.109375 -33.703125 L 24.625 -33.703125 L 24.625 -34.140625 L 35.796875 -34.140625 L 35.796875 -33.703125 L 35.59375 -33.703125 C 33.414062 -33.703125 31.644531 -32.921875 30.28125 -31.359375 L 20.78125 -20.09375 L 32.921875 -3.515625 C 34.410156 -1.554688 36.066406 -0.546875 37.890625 -0.484375 Z M 37.890625 0 "/></g></g></g><g fill="#ff3131" fill-opacity="1"><g transform="translate(229.262254, 201.726416)"><g><path d="M 2.6875 -0.484375 C 3.53125 -0.484375 4.25 -0.785156 4.84375 -1.390625 C 5.445312 -1.992188 5.765625 -2.71875 5.796875 -3.5625 L 5.796875 -30.625 C 5.765625 -31.46875 5.445312 -32.179688 4.84375 -32.765625 C 4.25 -33.347656 3.53125 -33.640625 2.6875 -33.640625 L 2.046875 -33.640625 L 2.046875 -34.140625 L 16.875 -34.140625 L 16.828125 -33.640625 L 16.234375 -33.640625 C 15.390625 -33.640625 14.660156 -33.347656 14.046875 -32.765625 C 13.429688 -32.179688 13.125 -31.46875 13.125 -30.625 L 13.125 -3.5625 C 13.125 -2.71875 13.429688 -1.992188 14.046875 -1.390625 C 14.660156 -0.785156 15.390625 -0.484375 16.234375 -0.484375 L 16.828125 -0.484375 L 16.875 0 L 2.046875 0 L 2.046875 -0.484375 Z M 2.6875 -0.484375 "/></g></g></g><g fill="#ff3131" fill-opacity="1"><g transform="translate(248.084259, 201.726416)"><g><path d="M 39.84375 -33.640625 C 39.03125 -33.640625 38.328125 -33.351562 37.734375 -32.78125 C 37.148438 -32.21875 36.84375 -31.53125 36.8125 -30.71875 L 36.8125 -5.5625 C 36.8125 -3.382812 36.957031 -1.546875 37.25 -0.046875 L 37.40625 0.6875 L 36.96875 0.6875 L 12.34375 -22.78125 L 12.34375 -3.40625 C 12.34375 -2.59375 12.632812 -1.898438 13.21875 -1.328125 C 13.800781 -0.765625 14.5 -0.484375 15.3125 -0.484375 L 16.234375 -0.484375 L 16.234375 0 L 1.46875 0 L 1.46875 -0.484375 L 2.34375 -0.484375 C 3.1875 -0.484375 3.898438 -0.765625 4.484375 -1.328125 C 5.066406 -1.898438 5.359375 -2.613281 5.359375 -3.46875 L 5.359375 -28.765625 C 5.359375 -30.910156 5.210938 -32.703125 4.921875 -34.140625 L 4.828125 -34.875 L 5.265625 -34.875 L 29.890625 -11.40625 L 29.890625 -30.671875 C 29.859375 -31.515625 29.550781 -32.21875 28.96875 -32.78125 C 28.382812 -33.351562 27.6875 -33.640625 26.875 -33.640625 L 25.984375 -33.640625 L 25.984375 -34.140625 L 40.765625 -34.140625 L 40.765625 -33.640625 Z M 39.84375 -33.640625 "/></g></g></g><g fill="#ff3131" fill-opacity="1"><g transform="translate(290.263093, 201.726416)"><g><path d="M 39.9375 -15.84375 L 39.203125 -15.84375 C 38.421875 -15.84375 37.816406 -15.65625 37.390625 -15.28125 C 36.972656 -14.914062 36.765625 -14.375 36.765625 -13.65625 L 36.765625 -5.609375 C 35.503906 -3.953125 33.410156 -2.488281 30.484375 -1.21875 C 27.554688 0.0507812 24.269531 0.6875 20.625 0.6875 C 15.0625 0.6875 10.597656 -0.910156 7.234375 -4.109375 C 3.867188 -7.316406 2.1875 -11.644531 2.1875 -17.09375 C 2.1875 -22.539062 3.867188 -26.851562 7.234375 -30.03125 C 10.597656 -33.21875 15.160156 -34.8125 20.921875 -34.8125 C 23.523438 -34.8125 26.046875 -34.5625 28.484375 -34.0625 C 30.921875 -33.5625 32.882812 -32.9375 34.375 -32.1875 L 34.484375 -23.796875 L 34.03125 -23.796875 C 33.1875 -26.953125 31.738281 -29.234375 29.6875 -30.640625 C 27.644531 -32.054688 25.210938 -32.765625 22.390625 -32.765625 C 18.453125 -32.765625 15.425781 -31.359375 13.3125 -28.546875 C 11.195312 -25.734375 10.140625 -21.878906 10.140625 -16.984375 C 10.140625 -12.097656 11.109375 -8.269531 13.046875 -5.5 C 14.984375 -2.738281 17.722656 -1.359375 21.265625 -1.359375 C 23.828125 -1.359375 25.972656 -2.09375 27.703125 -3.5625 C 28.546875 -4.3125 29.160156 -5.1875 29.546875 -6.1875 L 29.546875 -13.65625 C 29.546875 -14.375 29.328125 -14.914062 28.890625 -15.28125 C 28.453125 -15.65625 27.828125 -15.84375 27.015625 -15.84375 L 26.234375 -15.84375 L 26.234375 -16.34375 L 39.9375 -16.34375 Z M 39.9375 -15.84375 "/></g></g></g></svg>